<?xml version="1.0" standalone="no"?>
<!DOCTYPE svg PUBLIC "-//W3C//DTD SVG 20010904//EN"
 "http://www.w3.org/TR/2001/REC-SVG-20010904/DTD/svg10.dtd">
<svg version="1.0" xmlns="http://www.w3.org/2000/svg"
 width="432.000000pt" height="432.000000pt" viewBox="0 0 432.000000 432.000000"
 preserveAspectRatio="xMidYMid meet">
<metadata>
Created by potrace 1.11, written by Peter Selinger 2001-2013
</metadata>
<g transform="translate(0.000000,432.000000) scale(0.100000,-0.100000)"
fill="#000000" stroke="none">
<path d="M2260 2782 c-55 -8 -51 -13 110 -161 48 -43 57 -45 124 -17 l30 12
-48 52 c-73 78 -158 123 -216 114z"/>
<path d="M2105 2735 c-22 -7 -53 -18 -69 -24 l-30 -12 55 -50 c30 -28 72 -67
94 -88 22 -20 45 -40 51 -44 11 -6 131 28 147 42 4 4 -21 32 -55 62 -34 30
-80 71 -103 91 -22 21 -42 37 -45 37 -3 -1 -23 -7 -45 -14z"/>
<path d="M1873 2653 c-35 -14 -63 -29 -63 -34 0 -5 17 -24 38 -42 20 -17 63
-56 94 -85 l57 -54 68 22 c37 12 74 23 81 26 7 2 -8 21 -35 46 -149 135 -165
148 -172 147 -3 0 -34 -12 -68 -26z"/>
<path d="M1675 2559 c-27 -18 -52 -33 -54 -35 -7 -6 28 -42 102 -105 37 -33
64 -59 60 -60 -5 0 -30 -29 -58 -64 -45 -58 -53 -64 -88 -65 l-38 0 56 66 c31
36 55 67 53 68 -2 2 -31 29 -66 60 -53 48 -66 55 -78 45 -36 -30 -47 -73 -49
-186 l-1 -113 515 0 516 0 0 95 c0 98 1 97 -45 97 -47 0 -58 -6 -105 -67 -46
-59 -53 -64 -89 -65 -43 0 -46 -7 27 83 38 45 38 47 15 48 -23 1 -87 1 -120 0
-9 -1 -40 -30 -68 -66 -46 -57 -56 -65 -86 -65 -19 0 -34 3 -34 6 0 3 21 31
46 62 54 66 45 74 -73 63 -6 -1 -35 -30 -63 -66 -46 -57 -56 -65 -86 -65 -19
0 -34 3 -34 6 0 3 20 30 45 61 25 31 43 58 40 61 -3 3 -30 5 -61 4 -30 0 -52
2 -50 7 3 4 34 16 71 26 36 11 65 22 65 25 0 4 -17 22 -37 40 -21 19 -62 55
-91 82 -30 26 -61 48 -70 48 -9 0 -39 -14 -67 -31z"/>
<path d="M1506 2111 c-9 -18 3 -402 13 -439 15 -55 72 -118 114 -128 53 -11
757 -8 802 5 50 13 100 60 116 108 6 19 9 62 7 94 -2 32 -3 59 -1 59 1 0 44
-29 94 -65 51 -36 94 -63 96 -61 3 3 6 334 4 408 l-1 27 -46 -27 c-71 -42
-102 -61 -129 -78 -27 -18 -26 -20 -30 46 -1 19 -2 40 -3 46 -2 12 -1030 17
-1036 5z m543 -172 c55 -33 103 -64 106 -69 5 -8 -208 -130 -227 -130 -10 0
-10 2 -12 122 -2 99 5 138 23 138 6 0 55 -27 110 -61z"/>
</g>
</svg>
